<svg xmlns="http://www.w3.org/2000/svg" viewBox="0 0 400 280" fill="none"><style>
.led{animation:blink 2.4s ease-in-out infinite}
.d1{animation-delay:.5s}.d2{animation-delay:1.1s}.d3{animation-delay:1.7s}
.flow{stroke-dasharray:6 10;animation:flow 1.4s linear infinite}
.flow-rev{stroke-dasharray:6 10;animation:flow 1.4s linear infinite reverse}
.slow{animation-duration:2.8s}
.pulse{animation:pulse 3s ease-in-out infinite}
.float{animation:float 6s ease-in-out infinite}
.spin{animation:spin 1.2s linear infinite;transform-box:fill-box;transform-origin:center}
.draw{stroke-dasharray:600;stroke-dashoffset:600;animation:draw 4s ease-in-out infinite}
.grow{animation:grow 3s ease-in-out infinite;transform-box:fill-box;transform-origin:bottom}
@keyframes blink{0%,100%{opacity:1}50%{opacity:.2}}
@keyframes flow{to{stroke-dashoffset:-32}}
@keyframes pulse{0%,100%{opacity:.35}50%{opacity:1}}
@keyframes float{0%,100%{transform:translateY(0)}50%{transform:translateY(-6px)}}
@keyframes spin{to{transform:rotate(360deg)}}
@keyframes draw{0%{stroke-dashoffset:600}50%,80%{stroke-dashoffset:0}100%{stroke-dashoffset:-600}}
@keyframes grow{0%,100%{transform:scaleY(.55)}50%{transform:scaleY(1)}}
@media (prefers-reduced-motion:reduce){*{animation:none!important;stroke-dashoffset:0!important}}
</style><defs><radialGradient id="g"><stop offset="0" stop-color="#4da3ff" stop-opacity="0.22"/><stop offset="1" stop-color="#4da3ff" stop-opacity="0"/></radialGradient></defs><ellipse cx="200" cy="266" rx="175" ry="14" fill="url(#g)"/><path d="M105 120Q150 40 205 60" stroke="#8cc63f" stroke-width="1.5" class="flow slow"/><path d="M205 60Q270 60 300 140" stroke="#4da3ff" stroke-width="1.5" class="flow slow"/><rect x="70" y="120" width="70" height="132" rx="3" fill="#111111" stroke="#3a3a3a"/><rect x="78" y="130" width="10" height="8" rx="1" fill="#4da3ff" class="pulse" style="animation-delay:0s" opacity=".85"/><rect x="94" y="130" width="10" height="8" rx="1" fill="#181818"/><rect x="110" y="130" width="10" height="8" rx="1" fill="#181818"/><rect x="78" y="146" width="10" height="8" rx="1" fill="#181818"/><rect x="94" y="146" width="10" height="8" rx="1" fill="#181818"/><rect x="110" y="146" width="10" height="8" rx="1" fill="#181818"/><rect x="78" y="162" width="10" height="8" rx="1" fill="#181818"/><rect x="94" y="162" width="10" height="8" rx="1" fill="#181818"/><rect x="110" y="162" width="10" height="8" rx="1" fill="#4da3ff" class="pulse" style="animation-delay:1.2s" opacity=".85"/><rect x="78" y="178" width="10" height="8" rx="1" fill="#181818"/><rect x="94" y="178" width="10" height="8" rx="1" fill="#4da3ff" class="pulse" style="animation-delay:1.2s" opacity=".85"/><rect x="110" y="178" width="10" height="8" rx="1" fill="#181818"/><rect x="78" y="194" width="10" height="8" rx="1" fill="#4da3ff" class="pulse" style="animation-delay:1.2s" opacity=".85"/><rect x="94" y="194" width="10" height="8" rx="1" fill="#181818"/><rect x="110" y="194" width="10" height="8" rx="1" fill="#181818"/><rect x="78" y="210" width="10" height="8" rx="1" fill="#181818"/><rect x="94" y="210" width="10" height="8" rx="1" fill="#181818"/><rect x="110" y="210" width="10" height="8" rx="1" fill="#181818"/><rect x="78" y="226" width="10" height="8" rx="1" fill="#181818"/><rect x="94" y="226" width="10" height="8" rx="1" fill="#181818"/><rect x="110" y="226" width="10" height="8" rx="1" fill="#4da3ff" class="pulse" style="animation-delay:2.4s" opacity=".85"/><circle cx="105" cy="120" r="4" fill="#4da3ff" class="led"/><rect x="165" y="60" width="80" height="192" rx="3" fill="#111111" stroke="#3a3a3a"/><rect x="173" y="70" width="10" height="8" rx="1" fill="#181818"/><rect x="189" y="70" width="10" height="8" rx="1" fill="#181818"/><rect x="205" y="70" width="10" height="8" rx="1" fill="#181818"/><rect x="221" y="70" width="10" height="8" rx="1" fill="#8cc63f" class="pulse" style="animation-delay:0.8999999999999999s" opacity=".85"/><rect x="173" y="86" width="10" height="8" rx="1" fill="#181818"/><rect x="189" y="86" width="10" height="8" rx="1" fill="#181818"/><rect x="205" y="86" width="10" height="8" rx="1" fill="#8cc63f" class="pulse" style="animation-delay:0.8999999999999999s" opacity=".85"/><rect x="221" y="86" width="10" height="8" rx="1" fill="#181818"/><rect x="173" y="102" width="10" height="8" rx="1" fill="#181818"/><rect x="189" y="102" width="10" height="8" rx="1" fill="#8cc63f" class="pulse" style="animation-delay:0.8999999999999999s" opacity=".85"/><rect x="205" y="102" width="10" height="8" rx="1" fill="#181818"/><rect x="221" y="102" width="10" height="8" rx="1" fill="#181818"/><rect x="173" y="118" width="10" height="8" rx="1" fill="#8cc63f" class="pulse" style="animation-delay:0.8999999999999999s" opacity=".85"/><rect x="189" y="118" width="10" height="8" rx="1" fill="#181818"/><rect x="205" y="118" width="10" height="8" rx="1" fill="#181818"/><rect x="221" y="118" width="10" height="8" rx="1" fill="#181818"/><rect x="173" y="134" width="10" height="8" rx="1" fill="#181818"/><rect x="189" y="134" width="10" height="8" rx="1" fill="#181818"/><rect x="205" y="134" width="10" height="8" rx="1" fill="#181818"/><rect x="221" y="134" width="10" height="8" rx="1" fill="#8cc63f" class="pulse" style="animation-delay:2.1s" opacity=".85"/><rect x="173" y="150" width="10" height="8" rx="1" fill="#181818"/><rect x="189" y="150" width="10" height="8" rx="1" fill="#181818"/><rect x="205" y="150" width="10" height="8" rx="1" fill="#8cc63f" class="pulse" style="animation-delay:2.1s" opacity=".85"/><rect x="221" y="150" width="10" height="8" rx="1" fill="#181818"/><rect x="173" y="166" width="10" height="8" rx="1" fill="#181818"/><rect x="189" y="166" width="10" height="8" rx="1" fill="#8cc63f" class="pulse" style="animation-delay:2.1s" opacity=".85"/><rect x="205" y="166" width="10" height="8" rx="1" fill="#181818"/><rect x="221" y="166" width="10" height="8" rx="1" fill="#181818"/><rect x="173" y="182" width="10" height="8" rx="1" fill="#8cc63f" class="pulse" style="animation-delay:2.1s" opacity=".85"/><rect x="189" y="182" width="10" height="8" rx="1" fill="#181818"/><rect x="205" y="182" width="10" height="8" rx="1" fill="#181818"/><rect x="221" y="182" width="10" height="8" rx="1" fill="#181818"/><rect x="173" y="198" width="10" height="8" rx="1" fill="#181818"/><rect x="189" y="198" width="10" height="8" rx="1" fill="#181818"/><rect x="205" y="198" width="10" height="8" rx="1" fill="#181818"/><rect x="221" y="198" width="10" height="8" rx="1" fill="#8cc63f" class="pulse" style="animation-delay:3.3s" opacity=".85"/><rect x="173" y="214" width="10" height="8" rx="1" fill="#181818"/><rect x="189" y="214" width="10" height="8" rx="1" fill="#181818"/><rect x="205" y="214" width="10" height="8" rx="1" fill="#8cc63f" class="pulse" style="animation-delay:3.3s" opacity=".85"/><rect x="221" y="214" width="10" height="8" rx="1" fill="#181818"/><rect x="173" y="230" width="10" height="8" rx="1" fill="#181818"/><rect x="189" y="230" width="10" height="8" rx="1" fill="#8cc63f" class="pulse" style="animation-delay:3.3s" opacity=".85"/><rect x="205" y="230" width="10" height="8" rx="1" fill="#181818"/><rect x="221" y="230" width="10" height="8" rx="1" fill="#181818"/><circle cx="205" cy="60" r="4" fill="#8cc63f" class="led d1"/><rect x="270" y="140" width="60" height="112" rx="3" fill="#111111" stroke="#3a3a3a"/><rect x="278" y="150" width="10" height="8" rx="1" fill="#181818"/><rect x="294" y="150" width="10" height="8" rx="1" fill="#181818"/><rect x="310" y="150" width="10" height="8" rx="1" fill="#4da3ff" class="pulse" style="animation-delay:0.6s" opacity=".85"/><rect x="278" y="166" width="10" height="8" rx="1" fill="#181818"/><rect x="294" y="166" width="10" height="8" rx="1" fill="#4da3ff" class="pulse" style="animation-delay:0.6s" opacity=".85"/><rect x="310" y="166" width="10" height="8" rx="1" fill="#181818"/><rect x="278" y="182" width="10" height="8" rx="1" fill="#4da3ff" class="pulse" style="animation-delay:0.6s" opacity=".85"/><rect x="294" y="182" width="10" height="8" rx="1" fill="#181818"/><rect x="310" y="182" width="10" height="8" rx="1" fill="#181818"/><rect x="278" y="198" width="10" height="8" rx="1" fill="#181818"/><rect x="294" y="198" width="10" height="8" rx="1" fill="#181818"/><rect x="310" y="198" width="10" height="8" rx="1" fill="#181818"/><rect x="278" y="214" width="10" height="8" rx="1" fill="#181818"/><rect x="294" y="214" width="10" height="8" rx="1" fill="#181818"/><rect x="310" y="214" width="10" height="8" rx="1" fill="#4da3ff" class="pulse" style="animation-delay:1.7999999999999998s" opacity=".85"/><rect x="278" y="230" width="10" height="8" rx="1" fill="#181818"/><rect x="294" y="230" width="10" height="8" rx="1" fill="#4da3ff" class="pulse" style="animation-delay:1.7999999999999998s" opacity=".85"/><rect x="310" y="230" width="10" height="8" rx="1" fill="#181818"/><circle cx="300" cy="140" r="4" fill="#4da3ff" class="led d2"/></svg>
